# xmcd CD database file
#
# Track frame offsets:
#	182
#	23707
#	60255
#	80930
#	100547
#	143710
#	168547
#	195037
#	220687
#	235495
#	252645
#	271647
#	295685
#
# Disc length: 4203 seconds
#
# Revision: 0
# Processed by: cddbd v1.5.1PL0 Copyright (c) Steve Scherf et al.
# Submitted via: CDex 1.51
#
DISCID=ab10690d
DTITLE=Various Artist - Kansas City Blues - the Nineties: Vol. 1
DYEAR=1994
DGENRE=Blues
TTITLE0=Do You Love Me? - Lee McBee and the Passions
TTITLE1=Sweet Blood Call - Lee McBee and the Passions
TTITLE2=Swear to Tell the Truth - Lee McBee and the Passions
TTITLE3=Everybody gets the Blues - Linda Shell and the Blues Thang
TTITLE4=Mr. Blues - Linda Shell and the Blues Thang
TTITLE5=Wrong Place, Wrong Time - Fast Johnny Ricker
TTITLE6=Don't Go Down There - Fast Johnny Ricker
TTITLE7=Mighty High - Fast Johnny Ricker
TTITLE8=You're Breakin' My Heart - Bill Carter Blues Review
TTITLE9=This is My Life - Bill Carter Blues Review
TTITLE10=Just another Case of the Blues - Big John and the 39th Street Blues Band
TTITLE11=You Better Stop - Big John and the 39th Street Blues Band
TTITLE12=We're gonna have a Party - Big John and the 39th Street Blues Band
EXTD=YEAR: 1994
EXTT0=
EXTT1=
EXTT2=
EXTT3=
EXTT4=
EXTT5=
EXTT6=
EXTT7=
EXTT8=
EXTT9=
EXTT10=
EXTT11=
EXTT12=
PLAYORDER=
